<svg width="24" height="18" viewBox="0 0 24 18" fill="none" xmlns="http://www.w3.org/2000/svg">
<path d="M0 16.8749C0 16.2536 0.50368 15.7499 1.125 15.7499H22.875C23.4963 15.7499 24 16.2536 24 16.8749V16.8749C24 17.4962 23.4963 17.9999 22.875 17.9999H1.125C0.50368 17.9999 0 17.4962 0 16.8749V16.8749Z" fill="#222222"/>
<path d="M0 1.125C0 0.50368 0.50368 0 1.125 0H22.875C23.4963 0 24 0.50368 24 1.125V1.125C24 1.74632 23.4963 2.25 22.875 2.25H1.125C0.50368 2.25 0 1.74632 0 1.125V1.125Z" fill="#222222"/>
<path d="M0 8.99988C0 8.37856 0.50368 7.87488 1.125 7.87488H22.875C23.4963 7.87488 24 8.37856 24 8.99988V8.99988C24 9.6212 23.4963 10.1249 22.875 10.1249H1.125C0.50368 10.1249 0 9.6212 0 8.99988V8.99988Z" fill="#222222"/>
</svg>
