<svg width="17" height="16" viewBox="0 0 17 16" fill="none" xmlns="http://www.w3.org/2000/svg">
<mask id="path-1-inside-1_307_33487" fill="white">
<path d="M16.502 11.9601L16.502 14.9998C16.502 15.5521 16.0542 15.9998 15.502 15.9998L1.50195 15.9998C0.949668 15.9998 0.501953 15.5521 0.501953 14.9998L0.501953 11.9601L16.502 11.9601Z"/>
</mask>
<path d="M18.502 11.9601L18.502 14.9998C18.502 16.6567 17.1588 17.9998 15.502 17.9998L14.502 13.9998L14.502 11.9601L18.502 11.9601ZM1.50195 17.9998C-0.154902 17.9998 -1.49805 16.6567 -1.49805 14.9998L-1.49805 11.9601L2.50195 11.9601L2.50195 13.9998L1.50195 17.9998ZM0.501953 11.9601L16.502 11.9601L0.501953 11.9601ZM18.502 14.9998C18.502 16.6567 17.1588 17.9998 15.502 17.9998L1.50195 17.9998C-0.154902 17.9998 -1.49805 16.6567 -1.49805 14.9998L2.50195 13.9998L14.502 13.9998L18.502 14.9998Z" fill="#666666" mask="url(#path-1-inside-1_307_33487)"/>
<path d="M8.50445 10.8872L8.50446 -4.25041e-05M8.50445 10.8872L12.9358 6.41188M8.50445 10.8872L4.07313 6.41188" stroke="#666666" stroke-width="2"/>
</svg>
