<svg width="16" height="16" viewBox="0 0 16 16" fill="none" xmlns="http://www.w3.org/2000/svg">
<mask id="path-1-inside-1_1744_1977" fill="white">
<path d="M16 11.96L16 14.9997C16 15.552 15.5523 15.9997 15 15.9997L1 15.9997C0.447715 15.9997 -1.57013e-07 15.552 -1.32872e-07 14.9997L0 11.96L16 11.96Z"/>
</mask>
<path d="M18 11.96L18 14.9997C18 16.6566 16.6569 17.9997 15 17.9997L14 13.9997L14 11.96L18 11.96ZM1 17.9997C-0.656855 17.9997 -2 16.6566 -2 14.9997L-2 11.96L2 11.96L2 13.9997L1 17.9997ZM0 11.96L16 11.96L0 11.96ZM18 14.9997C18 16.6566 16.6569 17.9997 15 17.9997L1 17.9997C-0.656855 17.9997 -2 16.6566 -2 14.9997L2 13.9997L14 13.9997L18 14.9997Z" fill="#246BEB" mask="url(#path-1-inside-1_1744_1977)"/>
<path d="M8.00055 10.887L8.00055 -0.000286645M8.00055 10.887L12.4319 6.41164M8.00055 10.887L3.56922 6.41164" stroke="#246BEB" stroke-width="2"/>
</svg>
