<svg width="64" height="64" viewBox="0 0 64 64" fill="none" xmlns="http://www.w3.org/2000/svg">
<mask id="mask0_957_2185" style="mask-type:alpha" maskUnits="userSpaceOnUse" x="0" y="0" width="64" height="64">
<rect width="64" height="64" fill="#D9D9D9"/>
</mask>
<g mask="url(#mask0_957_2185)">
</g>
<g clip-path="url(#clip0_957_2185)">
<path d="M40.7908 9.42131C40.6292 9.09643 40.1443 8.934 39.821 9.25887L26.8906 16.8934C26.5673 17.0558 26.4057 17.5431 26.7289 17.868C26.8906 18.0304 27.0522 18.1929 27.3755 18.1929C27.5371 18.1929 27.5371 18.1929 27.6987 18.0304L40.6292 10.3959C40.9524 10.0711 40.9524 9.74618 40.7908 9.42131Z" fill="white"/>
<path d="M42.73 8.93395C42.8916 8.93395 42.8916 8.93395 43.0532 8.77151L45.8009 7.14715C46.1242 6.98471 46.2858 6.4974 45.9626 6.17253C45.8009 5.84765 45.316 5.68522 44.9928 6.01009L42.2451 7.63446C41.9218 7.79689 41.7602 8.2842 42.0834 8.60908C42.2451 8.77151 42.5683 8.93395 42.73 8.93395Z" fill="white"/>
<path d="M38.3662 31.0253C39.4977 31.0253 40.4674 30.0507 40.4674 28.9137C40.4674 28.5888 40.1442 28.2639 39.8209 28.2639C39.4977 28.2639 39.1744 28.4264 39.1744 28.9137C39.1744 29.401 38.8511 29.7258 38.3662 29.7258C38.043 29.7258 37.7197 30.0507 37.7197 30.3756C37.7197 30.7005 38.043 31.0253 38.3662 31.0253Z" fill="white"/>
<path d="M59.3783 58.6395H53.2364L43.0537 31.3502C43.7002 30.3756 44.0235 29.401 44.0235 28.1015V22.7411L53.7213 17.0558C53.8829 17.2182 54.2062 17.5431 54.5294 17.5431C54.6911 17.5431 54.8527 17.5431 55.0143 17.5431C55.3376 17.5431 55.6608 17.5431 55.8225 17.3806L57.762 16.2436C58.5702 15.7563 58.8935 14.6192 58.4086 13.9695L50.9736 0.974559C50.8119 0.649686 50.327 0.324813 50.0038 0.162376C49.5189 -6.03497e-05 49.034 0.162376 48.7107 0.324813L46.7712 1.46187C46.1247 1.94918 45.8014 2.76136 45.963 3.41111L24.6278 15.7563C23.8196 16.2436 23.4964 17.2182 23.9813 18.0304L24.1429 18.3553L8.14148 27.6142C7.33333 28.1015 7.01007 29.0761 7.49496 29.8883L2.48441 32.8121C1.83789 33.137 1.67626 33.9492 1.99952 34.5989L4.74724 39.3096C4.90887 39.6345 5.23213 39.7969 5.55539 39.9593C5.71702 39.9593 5.71702 39.9593 5.87865 39.9593C6.04028 39.9593 6.36354 39.9593 6.52518 39.7969L11.6974 37.1979C11.859 37.6852 12.3439 37.8477 12.8288 38.0101C12.9904 38.0101 13.152 38.0101 13.3137 38.0101C13.6369 38.0101 13.9602 37.8477 14.1218 37.8477L29.9616 28.5888L30.1232 28.9136C30.2849 29.2385 30.7698 29.5634 31.2546 29.7258C31.4163 29.7258 31.5779 29.7258 31.5779 29.7258C31.9012 29.7258 32.2244 29.7258 32.3861 29.5634L32.871 29.2385C33.0326 30.0507 33.3558 30.7004 33.6791 31.3502L23.4964 58.6395H17.3544C16.0614 58.6395 14.93 59.7766 14.93 61.0761V63.3502C14.93 63.6751 15.2532 63.9999 15.5765 63.9999H60.9947C61.3179 63.9999 61.6412 63.6751 61.6412 63.3502V61.2385C61.8028 59.7766 60.6714 58.6395 59.3783 58.6395ZM38.3664 33.9492C38.528 33.9492 38.6896 33.9492 38.6896 33.9492L48.0642 58.802H28.6686L38.0431 33.9492C38.2048 33.9492 38.2048 33.9492 38.3664 33.9492ZM40.1443 33.6243C40.4676 33.4619 40.7908 33.2994 41.1141 33.137H41.2757C41.599 32.9746 41.7606 32.8121 42.0839 32.6497C42.0839 32.6497 42.0839 32.6497 42.2455 32.6497L52.105 58.802H49.6805L40.1443 33.6243ZM47.2561 2.59892L49.1956 1.46187H49.3573C49.3573 1.46187 49.3573 1.46187 49.5189 1.46187C49.6805 1.46187 49.6805 1.62431 49.6805 1.62431L57.1155 14.6192C57.2771 14.7817 57.1155 14.9441 56.9539 15.1065L55.0143 16.2436C54.8527 16.2436 54.8527 16.2436 54.8527 16.2436C54.6911 16.2436 54.6911 16.0812 54.6911 16.0812L47.2561 3.08623C47.0944 2.9238 47.0944 2.59892 47.2561 2.59892ZM6.04028 38.9847L3.29257 34.2741L8.30311 31.3502L11.0508 36.0609L6.04028 38.9847ZM13.3137 36.7106C13.152 36.7106 13.152 36.7106 12.9904 36.7106C12.9904 36.7106 12.8288 36.7106 12.8288 36.5482L12.5055 36.0609L9.11126 30.2131L8.788 29.5634C8.62637 29.401 8.788 29.0761 8.94963 29.0761L24.7894 19.8172L29.1534 27.6142L13.3137 36.7106ZM31.7395 28.4263C31.5779 28.4263 31.5779 28.4263 31.5779 28.4263C31.4163 28.4263 31.4163 28.2639 31.2546 28.2639L30.7698 27.4517L25.7592 18.5177L25.2743 17.7055C25.1127 17.5431 25.2743 17.2182 25.4359 17.2182L46.6095 4.87304L53.0748 16.2436L43.2153 22.0913L40.7908 23.0659L31.7395 28.4263ZM42.7304 23.5532V28.2639C42.7304 29.401 42.4072 30.3756 41.7606 31.0253C41.599 31.1878 41.4374 31.3502 41.2757 31.5126C40.9525 31.8375 40.4676 32.1624 39.9827 32.3248C39.6594 32.3248 39.3362 32.4872 39.1745 32.4872C39.0129 32.4872 38.6896 32.4872 38.528 32.4872C38.3664 32.4872 38.0431 32.4872 37.8815 32.4872C36.9117 32.3248 35.9419 31.6751 35.2954 30.8629C34.8105 30.2131 34.4873 29.401 34.3256 28.5888L42.2455 23.8781L42.7304 23.5532ZM34.6489 32.4872C34.8105 32.4872 34.8105 32.4872 34.6489 32.4872C34.9721 32.8121 35.2954 32.9746 35.457 33.137C35.6187 33.137 35.6187 33.2994 35.7803 33.2994C35.9419 33.4619 36.2652 33.4619 36.5885 33.6243H36.7501L27.3755 58.802H24.9511L34.6489 32.4872ZM60.5098 62.538H16.3846V61.0761C16.3846 60.4263 16.8695 60.1015 17.5161 60.1015H23.9813H27.8604H49.1956H53.0748H59.7016C60.1865 60.1015 60.6714 60.5888 60.6714 61.0761V62.538H60.5098Z" fill="white"/>
</g>
<defs>
<clipPath id="clip0_957_2185">
<rect width="59.8033" height="64" fill="white" transform="translate(2)"/>
</clipPath>
</defs>
</svg>
