<svg width="26" height="20" viewBox="0 0 26 20" fill="none" xmlns="http://www.w3.org/2000/svg">
<path d="M0 18.3416C0 17.6834 0.533525 17.1499 1.19166 17.1499H24.8083C25.4665 17.1499 26 17.6834 26 18.3416V18.3416C26 18.9997 25.4665 19.5332 24.8083 19.5332H1.19166C0.533526 19.5332 0 18.9997 0 18.3416V18.3416Z" fill="#222222"/>
<path d="M0 1.65846C0 1.00032 0.533525 0.466797 1.19166 0.466797H24.8083C25.4665 0.466797 26 1.00032 26 1.65846V1.65846C26 2.3166 25.4665 2.85012 24.8083 2.85012H1.19166C0.533526 2.85012 0 2.3166 0 1.65846V1.65846Z" fill="#222222"/>
<path d="M0 10.0003C0 9.34212 0.533525 8.80859 1.19166 8.80859H24.8083C25.4665 8.80859 26 9.34212 26 10.0003V10.0003C26 10.6584 25.4665 11.1919 24.8083 11.1919H1.19166C0.533526 11.1919 0 10.6584 0 10.0003V10.0003Z" fill="#222222"/>
</svg>
