<svg width="64" height="64" viewBox="0 0 64 64" fill="none" xmlns="http://www.w3.org/2000/svg">
<mask id="mask0_957_2180" style="mask-type:alpha" maskUnits="userSpaceOnUse" x="0" y="0" width="64" height="64">
<rect width="64" height="64" fill="#D9D9D9"/>
</mask>
<g mask="url(#mask0_957_2180)">
</g>
<path d="M50.1719 48.859C58.0918 29.5833 45.8625 13.9764 45.8625 13.9764C46.6196 19.3922 46.2119 22.071 44.989 25.041C40.7379 8.73524 25.888 1.74707 25.888 1.74707C25.888 1.74707 30.5468 15.7234 21.6951 23.8763C21.4039 24.1092 21.171 24.4004 20.8798 24.6333C20.414 18.9263 18.4922 16.9463 18.4922 16.9463C18.7834 21.1392 13.2511 25.3904 11.504 32.9609C9.23288 42.8026 12.6105 49.616 12.6105 49.616C15.2311 56.9536 22.2775 62.253 30.5468 62.253C38.8744 62.253 46.9108 56.8954 50.1719 48.859Z" stroke="white" stroke-width="2" stroke-miterlimit="10" stroke-linecap="round" stroke-linejoin="round"/>
<path d="M39.9228 52.7025C39.9228 57.4195 36.0793 61.263 31.3623 61.263C26.6453 61.263 22.8018 57.4195 22.8018 52.7025C22.8018 48.3931 25.2476 46.0055 27.4023 44.0255C31.3623 40.3567 30.7799 37.3867 30.7799 37.3867C30.7799 37.3867 34.9728 40.5896 37.1275 43.7343C38.9328 46.4131 39.9228 48.8007 39.9228 52.7025Z" stroke="white" stroke-width="2" stroke-miterlimit="10" stroke-linecap="round" stroke-linejoin="round"/>
</svg>
