<svg width="15" height="16" viewBox="0 0 15 16" fill="none" xmlns="http://www.w3.org/2000/svg">
<path d="M13.125 6.5C14.1504 6.5 15 7.34961 15 8.375V11.6562C15 11.9199 14.7656 12.125 14.5312 12.125H13.125V14.9375C13.125 15.4648 12.6855 15.875 12.1875 15.875H2.8125C2.28516 15.875 1.875 15.4648 1.875 14.9375V12.125H0.46875C0.205078 12.125 0 11.9199 0 11.6562V8.375C0 7.34961 0.820312 6.5 1.875 6.5V1.8125C1.875 1.31445 2.28516 0.875 2.8125 0.875H10.8398C11.1035 0.875 11.3379 0.992188 11.5137 1.16797L12.832 2.48633C13.0078 2.66211 13.125 2.89648 13.125 3.16016V6.5ZM11.25 14V11.1875H3.75V14H11.25ZM11.25 7.4375V4.625H9.84375C9.58008 4.625 9.375 4.41992 9.375 4.15625V2.75H3.75V7.4375H11.25ZM12.6562 9.54688C13.0371 9.54688 13.3594 9.25391 13.3594 8.84375C13.3594 8.46289 13.0371 8.14062 12.6562 8.14062C12.2461 8.14062 11.9531 8.46289 11.9531 8.84375C11.9531 9.25391 12.2461 9.54688 12.6562 9.54688Z" fill="#666666"/>
</svg>
