<svg width="64" height="64" viewBox="0 0 64 64" fill="none" xmlns="http://www.w3.org/2000/svg">
<mask id="mask0_957_2193" style="mask-type:alpha" maskUnits="userSpaceOnUse" x="0" y="0" width="64" height="64">
<rect width="64" height="64" fill="#D9D9D9"/>
</mask>
<g mask="url(#mask0_957_2193)">
</g>
<g clip-path="url(#clip0_957_2193)">
<path d="M31.8307 25.0265L0.677249 15.2064C0.338624 14.8677 0 14.5291 0 14.1905C0 13.8519 0.338624 13.5132 0.677249 13.5132L31.4921 2C31.8307 2 31.8307 2 32.1693 2L63.3228 13.5132C63.6614 13.5132 64 13.8519 64 14.1905C64 14.5291 63.6614 14.8677 63.3228 14.8677L31.8307 25.0265ZM3.38624 14.1905L31.8307 23.3333L60.2751 14.1905L31.8307 3.69312L3.38624 14.1905Z" fill="white"/>
<path d="M26.0737 10.127C25.7351 10.127 25.3965 9.78835 25.3965 9.44973C25.3965 9.1111 25.3965 8.43385 25.7351 8.43385L37.587 4.03174C37.9256 4.03174 38.6028 4.03174 38.6028 4.37036C38.6028 4.70899 38.6028 5.38624 38.2642 5.38624L26.0737 10.127C26.4124 10.127 26.4124 10.127 26.0737 10.127Z" fill="white"/>
<path d="M31.8304 38.2329C22.6875 38.2329 14.8992 35.5239 12.1902 34.1694C11.1743 33.8307 10.4971 32.8149 10.4971 31.4604V17.5768C10.4971 17.2381 10.4971 17.2381 10.8357 16.8995C11.1743 16.8995 11.1743 16.5609 11.5129 16.8995L31.8304 23.3334L52.1479 16.8995C52.4865 16.8995 52.8251 16.8995 52.8251 16.8995C53.1637 16.8995 53.1637 17.2381 53.1637 17.5768V31.4604C53.1637 32.8149 52.4865 33.8307 51.4706 34.1694C48.7616 35.5239 40.9733 38.2329 31.8304 38.2329ZM12.1902 18.5926V31.4604C12.1902 32.1376 12.5288 32.4762 12.8674 32.8149C15.5764 33.8307 22.6875 36.5397 31.8304 36.5397C40.6346 36.5397 48.0844 33.8307 50.7934 32.8149C51.132 32.4762 51.4706 32.1376 51.4706 31.4604V18.5926L32.169 25.0265H31.8304L12.1902 18.5926Z" fill="white"/>
<path d="M26.0738 32.4762C19.6399 31.799 14.5606 30.1059 12.1902 29.09C11.1743 28.4127 10.4971 27.3969 10.4971 26.381C10.4971 26.0424 10.8357 25.7037 11.1743 25.7037C11.5129 25.7037 11.8516 26.0424 11.8516 26.381C11.8516 27.0582 12.1902 27.3969 12.5288 27.7355C14.8992 28.7514 19.6399 30.4445 25.7352 31.1217C26.0738 31.1217 26.4124 31.4603 26.4124 32.1376C26.751 32.1376 26.4124 32.4762 26.0738 32.4762Z" fill="white"/>
<path d="M57.9048 36.8783C57.5662 36.8783 57.2275 36.5396 57.2275 36.201V15.8835C57.2275 15.5449 57.5662 15.2063 57.9048 15.2063C58.2434 15.2063 58.582 15.5449 58.582 15.8835V36.201C58.582 36.5396 58.2434 36.8783 57.9048 36.8783Z" fill="white"/>
<path d="M57.9051 46.6984C54.8574 46.6984 52.1484 44.328 52.1484 40.9418C52.1484 37.5556 54.5188 35.1852 57.9051 35.1852C60.9527 35.1852 63.6617 37.5556 63.6617 40.9418C63.6617 44.328 60.9527 46.6984 57.9051 46.6984ZM57.9051 36.8783C55.8733 36.8783 53.8416 38.5714 53.8416 40.9418C53.8416 42.9735 55.5347 45.0053 57.9051 45.0053C59.9368 45.0053 61.9685 43.3122 61.9685 40.9418C61.9685 38.91 59.9368 36.8783 57.9051 36.8783Z" fill="white"/>
<path d="M57.9051 46.6984C54.8574 46.6984 52.1484 44.328 52.1484 40.9418C52.1484 37.5556 54.5188 35.1852 57.9051 35.1852C60.9527 35.1852 63.6617 37.5556 63.6617 40.9418C63.6617 44.328 60.9527 46.6984 57.9051 46.6984ZM57.9051 36.8783C55.8733 36.8783 53.8416 38.5714 53.8416 40.9418C53.8416 42.9735 55.5347 45.0053 57.9051 45.0053C59.9368 45.0053 61.9685 43.3122 61.9685 40.9418C61.9685 38.91 59.9368 36.8783 57.9051 36.8783Z" fill="white"/>
<path d="M61.2911 62.2751H54.8572C53.8413 62.2751 53.1641 61.9365 52.4868 61.2592C51.8096 60.582 51.8096 59.9047 51.8096 58.8889L53.5027 43.9894C53.5027 43.6508 53.8413 43.3121 53.8413 43.3121C54.1799 43.3121 54.5186 43.3121 54.8572 43.6508C55.5344 44.6666 56.5503 45.0053 57.9048 45.0053C59.2593 45.0053 59.9366 44.6666 60.9524 43.6508C61.2911 43.3121 61.6297 43.3121 61.9683 43.3121C62.3069 43.3121 62.3069 43.6508 62.3069 43.9894L64 58.8889C64 59.9047 64 60.582 63.3228 61.2592C62.6456 61.9365 61.9683 62.2751 61.2911 62.2751ZM54.8572 45.6825L53.1641 59.2275C53.1641 59.5661 53.1641 59.9047 53.5027 60.2434C53.8413 60.582 54.1799 60.582 54.5186 60.582H60.9524C61.2911 60.582 61.6297 60.582 61.9683 60.2434C62.3069 59.9047 62.3069 59.5661 62.3069 59.2275L60.6138 45.6825C58.9207 46.6984 56.5503 46.6984 54.8572 45.6825Z" fill="white"/>
</g>
<defs>
<clipPath id="clip0_957_2193">
<rect width="64" height="60.2751" fill="white" transform="translate(0 2)"/>
</clipPath>
</defs>
</svg>
