<svg width="26" height="26" viewBox="0 0 26 26" fill="none" xmlns="http://www.w3.org/2000/svg">
<g clip-path="url(#clip0_957_29)">
<path d="M25.6824 24.1511L18.6036 17.0723C21.9444 12.9623 21.7024 6.89118 17.8777 3.06648C13.793 -1.01825 7.1476 -1.01825 3.06648 3.06648C-1.01825 7.15121 -1.01825 13.7966 3.06648 17.8777C7.76158 22.5728 13.7424 21.2329 17.0687 18.6L24.1547 25.686C24.3678 25.8991 24.6423 26.0038 24.9203 26.0038C25.1984 26.0038 25.4765 25.8991 25.686 25.686C26.1086 25.2635 26.1086 24.5772 25.686 24.1547L25.6824 24.1511ZM16.3428 16.3428C14.425 18.2569 9.03286 20.7814 4.59419 16.3428C1.35458 13.1032 1.35458 7.83381 4.59419 4.59419C6.21219 2.97619 8.33943 2.16719 10.4667 2.16719C12.5939 2.16719 14.7212 2.97619 16.3392 4.59419C19.5752 7.83381 19.5788 13.1032 16.3392 16.3428H16.3428Z" fill="#222222"/>
</g>
<defs>
<clipPath id="clip0_957_29">
<rect width="26" height="26" fill="white"/>
</clipPath>
</defs>
</svg>
