<svg width="14" height="16" viewBox="0 0 14 16" fill="none" xmlns="http://www.w3.org/2000/svg">
<path d="M10.3125 10.25C11.8652 10.25 13.125 11.5098 13.125 13.0625C13.125 14.6445 11.8652 15.875 10.3125 15.875C8.73047 15.875 7.5 14.6445 7.5 13.0625V13.0918C7.5 12.8574 7.5 12.6523 7.55859 12.4766L4.54102 10.6016C4.07227 10.9824 3.45703 11.1875 2.8125 11.1875C1.23047 11.1875 0 9.95703 0 8.375C0 6.82227 1.23047 5.5625 2.8125 5.5625C3.45703 5.5625 4.07227 5.79688 4.54102 6.17773L7.55859 4.30273C7.5 4.12695 7.5 3.92188 7.5 3.6875C7.5 2.13477 8.73047 0.875 10.3125 0.875C11.8652 0.875 13.125 2.13477 13.125 3.6875C13.125 5.26953 11.8652 6.5 10.3125 6.5C9.63867 6.5 9.02344 6.29492 8.55469 5.91406L5.53711 7.78906C5.5957 7.96484 5.5957 8.16992 5.5957 8.375C5.5957 8.60938 5.5957 8.81445 5.53711 8.99023L8.55469 10.8652C9.02344 10.4844 9.63867 10.25 10.3125 10.25Z" fill="#666666"/>
</svg>
