<svg width="32" height="32" viewBox="0 0 32 32" fill="none" xmlns="http://www.w3.org/2000/svg">
<mask id="mask0_957_1012" style="mask-type:alpha" maskUnits="userSpaceOnUse" x="0" y="0" width="32" height="32">
<rect width="32" height="32" fill="#D9D9D9"/>
</mask>
<g mask="url(#mask0_957_1012)">
</g>
<g clip-path="url(#clip0_957_1012)">
<path d="M13.4656 22.6648C8.77628 21.4491 5.30273 17.194 5.30273 12.1574C5.30273 6.16551 10.1657 1.30255 16.1576 1.30255C22.1494 1.30255 27.0124 6.16551 27.0124 12.1574C27.0124 17.2808 23.4954 21.5793 18.7193 22.7083" stroke="#222222" stroke-width="3" stroke-miterlimit="10" stroke-linecap="round" stroke-linejoin="round"/>
<path d="M21.9762 23.6635C21.9762 23.1424 21.542 22.7083 21.021 22.7083H11.2951C10.774 22.7083 10.3398 23.1424 10.3398 23.6635V27.5712C10.3398 28.0922 10.774 28.5264 11.2951 28.5264H21.021C21.542 28.5264 21.9762 28.0922 21.9762 27.5712V23.6635Z" stroke="#222222" stroke-width="3" stroke-miterlimit="10" stroke-linecap="round" stroke-linejoin="round"/>
<path d="M17.9812 28.8738C17.9812 29.8724 17.1562 30.6974 16.1576 30.6974C15.159 30.6974 14.334 29.8724 14.334 28.8738" stroke="#222222" stroke-width="3" stroke-miterlimit="10" stroke-linecap="round" stroke-linejoin="round"/>
<path d="M22.8005 11.5061C22.8005 8.46676 20.369 6.03528 17.373 6.03528" stroke="#222222" stroke-width="3" stroke-miterlimit="10" stroke-linecap="round" stroke-linejoin="round"/>
</g>
<defs>
<clipPath id="clip0_957_1012">
<rect width="24.3148" height="32" fill="white" transform="translate(4)"/>
</clipPath>
</defs>
</svg>
