<svg width="120" height="120" viewBox="0 0 120 120" fill="none" xmlns="http://www.w3.org/2000/svg">
<g id="Group 34934">
<circle id="Ellipse 469" cx="60" cy="60" r="60" fill="#ECF1FC"/>
<g id="Mask group">
<mask id="mask0_957_2261" style="mask-type:alpha" maskUnits="userSpaceOnUse" x="28" y="28" width="64" height="64">
<rect id="Rectangle 34624458" x="29.25" y="29.25" width="61.5" height="61.5" fill="#D9D9D9" stroke="white" stroke-width="2.5"/>
</mask>
<g mask="url(#mask0_957_2261)">
<g id="Group">
<g id="&#235;&#160;&#136;&#236;&#157;&#180;&#236;&#150;&#180; 2">
<g id="&#235;&#169;&#148;&#236;&#157;&#184; 1">
<path id="Vector" d="M59.9445 60.3006V75.7362H50.2453C50.2553 71.7168 48.967 67.8042 46.5766 64.5947L45.1091 62.8307C43.0652 60.0718 41.8205 56.7914 41.5146 53.3568C41.2086 49.9222 41.8535 46.4692 43.377 43.3848C44.9005 40.3003 47.2424 37.7063 50.1402 35.8933C53.038 34.0803 56.3773 33.12 59.784 33.12C63.1906 33.12 66.5299 34.0803 69.4277 35.8933C72.3255 37.7063 74.6674 40.3003 76.1909 43.3848C77.7144 46.4692 78.3593 49.9222 78.0533 53.3568C77.7474 56.7914 76.5027 60.0718 74.4588 62.8307L72.9684 64.5947C70.578 67.8042 69.2897 71.7168 69.2997 75.7362H63.682" stroke="#124E85" stroke-width="2.5" stroke-linecap="round" stroke-linejoin="round"/>
<path id="Vector_2" d="M69.0479 78.9161H50.498" stroke="#124E85" stroke-width="2.5" stroke-linecap="round" stroke-linejoin="round"/>
<path id="Vector_3" d="M67.4881 82.0961H52.0107" stroke="#124E85" stroke-width="2.5" stroke-linecap="round" stroke-linejoin="round"/>
<path id="Vector_4" d="M64.8511 85.3922C63.2693 86.1737 61.5323 86.5799 59.7722 86.5799C58.0121 86.5799 56.2751 86.1737 54.6934 85.3922" stroke="#124E85" stroke-width="2.5" stroke-linecap="round" stroke-linejoin="round"/>
<path id="Vector_5" d="M60.8049 55.1477C60.8049 55.6511 60.4058 56.0331 59.9454 56.0331C59.4851 56.0331 59.0859 55.6511 59.0859 55.1477C59.0859 54.6442 59.4851 54.2622 59.9454 54.2622C60.4058 54.2622 60.8049 54.6442 60.8049 55.1477Z" stroke="#124E85" stroke-width="2.5"/>
</g>
</g>
</g>
</g>
</g>
</g>
</svg>
