<svg width="120" height="120" viewBox="0 0 120 120" fill="none" xmlns="http://www.w3.org/2000/svg">
<g id="Group 34936">
<circle id="Ellipse 467" cx="60" cy="60" r="60" fill="#E8F6FE"/>
<g id="Mask group">
<mask id="mask0_957_2227" style="mask-type:alpha" maskUnits="userSpaceOnUse" x="28" y="28" width="64" height="64">
<rect id="Rectangle 34624455" x="29.25" y="29.25" width="61.5" height="61.5" fill="#D9D9D9" stroke="white" stroke-width="2.5"/>
</mask>
<g mask="url(#mask0_957_2227)">
<g id="Group">
<g id="&#235;&#160;&#136;&#236;&#157;&#180;&#236;&#150;&#180; 2">
<g id="&#235;&#169;&#148;&#236;&#157;&#184; 1">
<path id="Vector" d="M30.1782 67.1086L50.1268 44.9416L65.9939 58.2186L83.9706 40.2993" stroke="#124E85" stroke-width="2.5" stroke-linecap="round" stroke-linejoin="round"/>
<path id="Vector_2" d="M83.9711 49.5607L66.1778 68.2923L50.7464 52.9728L35.7964 70.5902V80.3391H83.9711V49.5607Z" stroke="#124E85" stroke-width="2.5" stroke-linecap="round" stroke-linejoin="round"/>
<path id="Vector_3" d="M50.7236 52.9728V80.0373" stroke="#124E85" stroke-width="2.5" stroke-linecap="round" stroke-linejoin="round"/>
<path id="Vector_4" d="M66.1782 68.2922V80.339" stroke="#124E85" stroke-width="2.5" stroke-linecap="round" stroke-linejoin="round"/>
<path id="Vector_5" d="M79.7061 40.16L83.9709 40.2993L84.2919 44.9416" stroke="#124E85" stroke-width="2.5" stroke-linecap="round" stroke-linejoin="round"/>
<path id="Vector_6" d="M66.8538 57.6383C66.8538 58.1417 66.4546 58.5237 65.9943 58.5237C65.5339 58.5237 65.1348 58.1417 65.1348 57.6383C65.1348 57.1348 65.5339 56.7528 65.9943 56.7528C66.4546 56.7528 66.8538 57.1348 66.8538 57.6383Z" fill="#246BEB" stroke="#124E85" stroke-width="2.5"/>
<path id="Vector_7" d="M50.9861 44.9416C50.9861 45.4451 50.5869 45.8271 50.1266 45.8271C49.6663 45.8271 49.2671 45.4451 49.2671 44.9416C49.2671 44.4381 49.6663 44.0562 50.1266 44.0562C50.5869 44.0562 50.9861 44.4381 50.9861 44.9416Z" fill="#246BEB" stroke="#124E85" stroke-width="2.5"/>
<path id="Vector_8" d="M30.969 67.0853C30.969 67.2638 30.9166 67.437 30.8203 67.5831C30.724 67.7289 30.5887 67.8403 30.4334 67.9054C30.2783 67.9705 30.1084 67.9873 29.9447 67.9543C29.7809 67.9213 29.6283 67.8395 29.5071 67.7168C29.3858 67.5939 29.3014 67.4356 29.2671 67.2609C29.2327 67.0861 29.2505 66.9051 29.3175 66.7415C29.3844 66.5779 29.4967 66.4406 29.6379 66.3451C29.7788 66.2498 29.9429 66.1998 30.1095 66.1998C30.2202 66.1998 30.3303 66.2219 30.4334 66.2651C30.5366 66.3084 30.6314 66.3722 30.7119 66.4537C30.7924 66.5353 30.8571 66.6329 30.9015 66.7415C30.946 66.85 30.969 66.9669 30.969 67.0853Z" fill="#246BEB" stroke="#124E85" stroke-width="2.5"/>
</g>
</g>
</g>
</g>
</g>
</g>
</svg>
