<svg width="120" height="120" viewBox="0 0 120 120" fill="none" xmlns="http://www.w3.org/2000/svg">
<g id="Group 34935">
<circle id="Ellipse 468" cx="60" cy="60" r="60" fill="#E7F2FD"/>
<g id="Mask group">
<mask id="mask0_957_2243" style="mask-type:alpha" maskUnits="userSpaceOnUse" x="28" y="28" width="64" height="64">
<rect id="Rectangle 34624456" x="29.25" y="29.25" width="61.5" height="61.5" fill="#D9D9D9" stroke="white" stroke-width="2.5"/>
</mask>
<g mask="url(#mask0_957_2243)">
<g id="Group">
<g id="&#235;&#160;&#136;&#236;&#157;&#180;&#236;&#150;&#180; 2">
<g id="&#235;&#169;&#148;&#236;&#157;&#184; 1">
<path id="Vector" d="M79.5963 86.4036H40.7998V33.76H68.7049L79.5963 44.7622V86.4036Z" stroke="#124E85" stroke-width="2.5" stroke-linecap="round" stroke-linejoin="round"/>
<path id="Vector_2" d="M68.7051 33.76V44.5765H79.5965" stroke="#124E85" stroke-width="2.5" stroke-linecap="round" stroke-linejoin="round"/>
<path id="Vector_3" d="M55.5205 54.511H73.4284" stroke="#124E85" stroke-width="2.5" stroke-linecap="round" stroke-linejoin="round"/>
<path id="Vector_4" d="M55.5205 43.3462H64.6693" stroke="#124E85" stroke-width="2.5" stroke-linecap="round" stroke-linejoin="round"/>
<path id="Vector_5" d="M55.5205 65.6525H73.4284" stroke="#124E85" stroke-width="2.5" stroke-linecap="round" stroke-linejoin="round"/>
<path id="Vector_6" d="M55.5205 76.8173H73.4284" stroke="#124E85" stroke-width="2.5" stroke-linecap="round" stroke-linejoin="round"/>
<path id="Vector_7" d="M49.9372 43.3463C49.9372 43.8496 49.538 44.2317 49.0775 44.2317C48.6169 44.2317 48.2178 43.8496 48.2178 43.3463C48.2178 42.8429 48.6169 42.4608 49.0775 42.4608C49.538 42.4608 49.9372 42.8429 49.9372 43.3463Z" fill="#FF1493" stroke="#124E85" stroke-width="2.5"/>
<path id="Vector_8" d="M49.9372 54.5109C49.9372 55.0143 49.538 55.3964 49.0775 55.3964C48.6169 55.3964 48.2178 55.0143 48.2178 54.5109C48.2178 54.0076 48.6169 53.6255 49.0775 53.6255C49.538 53.6255 49.9372 54.0076 49.9372 54.5109Z" fill="#FF1493" stroke="#124E85" stroke-width="2.5"/>
<path id="Vector_9" d="M49.9372 65.6524C49.9372 66.1558 49.538 66.5379 49.0775 66.5379C48.6169 66.5379 48.2178 66.1558 48.2178 65.6524C48.2178 65.1491 48.6169 64.767 49.0775 64.767C49.538 64.767 49.9372 65.1491 49.9372 65.6524Z" fill="#FF1493" stroke="#124E85" stroke-width="2.5"/>
<path id="Vector_10" d="M49.9372 76.8172C49.9372 77.3206 49.538 77.7027 49.0775 77.7027C48.6169 77.7027 48.2178 77.3206 48.2178 76.8172C48.2178 76.3139 48.6169 75.9318 49.0775 75.9318C49.538 75.9318 49.9372 76.3139 49.9372 76.8172Z" fill="#FF1493" stroke="#124E85" stroke-width="2.5"/>
</g>
</g>
</g>
</g>
</g>
</g>
</svg>
