<svg width="120" height="120" viewBox="0 0 120 120" fill="none" xmlns="http://www.w3.org/2000/svg">
<g id="Group 34933">
<circle id="Ellipse 470" cx="60" cy="60" r="60" fill="#E9F7FA"/>
<g id="Mask group">
<mask id="mask0_957_2273" style="mask-type:alpha" maskUnits="userSpaceOnUse" x="28" y="28" width="64" height="64">
<rect id="Rectangle 34624457" x="29.25" y="29.25" width="61.5" height="61.5" fill="#D9D9D9" stroke="white" stroke-width="2.5"/>
</mask>
<g mask="url(#mask0_957_2273)">
<g id="Group">
<g id="&#235;&#160;&#136;&#236;&#157;&#180;&#236;&#150;&#180; 2">
<g id="&#235;&#169;&#148;&#236;&#157;&#184; 1">
<path id="Vector" d="M54.747 69.7246C63.5102 69.7246 70.6142 62.5333 70.6142 53.6623C70.6142 44.7913 63.5102 37.6 54.747 37.6C45.9838 37.6 38.8799 44.7913 38.8799 53.6623C38.8799 62.5333 45.9838 69.7246 54.747 69.7246Z" stroke="#124E85" stroke-width="2.5" stroke-linecap="round" stroke-linejoin="round"/>
<path id="Vector_2" d="M54.7471 43.4724C56.0679 43.4724 57.3757 43.7361 58.5957 44.2485C59.8157 44.7609 60.9238 45.5118 61.8567 46.4583C62.7896 47.4049 63.5289 48.5284 64.0323 49.7645C64.5356 51.0007 64.7932 52.3252 64.7901 53.6622" stroke="#124E85" stroke-width="2.5" stroke-linecap="round" stroke-linejoin="round"/>
<path id="Vector_3" d="M65.8447 66.2429L81.3221 81.9107" stroke="#124E85" stroke-width="2.5" stroke-linecap="round" stroke-linejoin="round"/>
</g>
</g>
</g>
</g>
</g>
</g>
</svg>
