<svg width="16" height="18" viewBox="0 0 16 18" fill="none" xmlns="http://www.w3.org/2000/svg">
<path d="M13.7098 7.5625C14.5731 7.5625 15.3036 8.29297 15.3036 9.15625V15.5312C15.3036 16.4277 14.5731 17.125 13.7098 17.125H2.02234C1.12585 17.125 0.428589 16.4277 0.428589 15.5312V9.15625C0.428589 8.29297 1.12585 7.5625 2.02234 7.5625H2.81921V5.17188C2.81921 2.41602 5.07703 0.125 7.86609 0.125C10.6219 0.125 12.913 2.41602 12.913 5.17188V7.5625H13.7098ZM10.2567 7.5625V5.17188C10.2567 3.87695 9.16101 2.78125 7.86609 2.78125C6.53796 2.78125 5.47546 3.87695 5.47546 5.17188V7.5625H10.2567Z" fill="#666666"/>
</svg>
