<svg width="12" height="12" viewBox="0 0 12 12" fill="none" xmlns="http://www.w3.org/2000/svg">
<g id="icon" clip-path="url(#clip0_180_892)">
<path id="Vector" d="M10.6667 1.44H9V0.48C9 0.2144 8.77667 0 8.5 0C8.22333 0 8 0.2144 8 0.48V1.44H4V0.48C4 0.2144 3.77667 0 3.5 0C3.22333 0 3 0.2144 3 0.48V1.44H1.33333C0.598333 1.44 0 2.0144 0 2.72V10.72C0 11.4256 0.598333 12 1.33333 12H10.6667C11.4017 12 12 11.4256 12 10.72V2.72C12 2.0144 11.4017 1.44 10.6667 1.44ZM1.33333 2.4H3V2.88C3 3.1456 3.22333 3.36 3.5 3.36C3.77667 3.36 4 3.1456 4 2.88V2.4H8V2.88C8 3.1456 8.22333 3.36 8.5 3.36C8.77667 3.36 9 3.1456 9 2.88V2.4H10.6667C10.85 2.4 11 2.544 11 2.72V4.32H1V2.72C1 2.544 1.15 2.4 1.33333 2.4ZM10.6667 11.04H1.33333C1.15 11.04 1 10.896 1 10.72V5.28H11V10.72C11 10.896 10.85 11.04 10.6667 11.04Z" fill="#666666"/>
</g>
<defs>
<clipPath id="clip0_180_892">
<rect width="12" height="12" fill="white"/>
</clipPath>
</defs>
</svg>
