<svg width="18" height="18" viewBox="0 0 18 18" fill="none" xmlns="http://www.w3.org/2000/svg">
<path d="M17.0701 14.834C17.3689 15.166 17.3689 15.6641 17.0369 15.9629L16.1072 16.8926C15.8083 17.2246 15.3103 17.2246 14.9783 16.8926L11.6912 13.6055C11.5251 13.4395 11.4587 13.2402 11.4587 13.041V12.4766C10.2634 13.4062 8.80249 13.9375 7.20874 13.9375C3.39038 13.9375 0.30249 10.8496 0.30249 7.03125C0.30249 3.24609 3.39038 0.125 7.20874 0.125C10.9939 0.125 14.115 3.24609 14.115 7.03125C14.115 8.6582 13.5505 10.1191 12.6541 11.2812H13.1853C13.3845 11.2812 13.5837 11.3809 13.7498 11.5137L17.0701 14.834ZM7.20874 11.2812C9.53296 11.2812 11.4587 9.38867 11.4587 7.03125C11.4587 4.70703 9.53296 2.78125 7.20874 2.78125C4.85132 2.78125 2.95874 4.70703 2.95874 7.03125C2.95874 9.38867 4.85132 11.2812 7.20874 11.2812Z" fill="#666666"/>
</svg>
