<svg width="18" height="14" viewBox="0 0 18 14" fill="none" xmlns="http://www.w3.org/2000/svg">
<path d="M9.20312 4.24023C9.26172 4.18164 9.34961 4.15234 9.4375 4.15234C9.49609 4.15234 9.58398 4.18164 9.64258 4.24023L15.0625 8.66406V13.4688C15.0625 13.7324 14.8281 13.9375 14.5938 13.9375H11.2832C11.0488 13.9375 10.8145 13.7324 10.8145 13.4688V10.6562C10.8145 10.4219 10.6094 10.1875 10.3457 10.1875H8.4707C8.23633 10.1875 8.00195 10.4219 8.00195 10.6562V13.4688C8.00195 13.7324 7.79688 13.9375 7.5625 13.9375H4.28125C4.01758 13.9375 3.8125 13.7324 3.8125 13.4688V8.69336L9.20312 4.24023ZM17.7285 7.25781C17.8164 7.31641 17.875 7.43359 17.875 7.52148C17.875 7.60938 17.8457 7.69727 17.7871 7.75586L17.0254 8.66406C16.9668 8.75195 16.8789 8.78125 16.7617 8.78125C16.6738 8.78125 16.5859 8.75195 16.5273 8.69336L9.64258 3.03906C9.58398 2.98047 9.49609 2.95117 9.4375 2.95117C9.34961 2.95117 9.26172 2.98047 9.20312 3.03906L2.31836 8.69336C2.25977 8.75195 2.17188 8.78125 2.08398 8.78125C1.9668 8.78125 1.87891 8.75195 1.82031 8.66406L1.05859 7.75586C1.0293 7.69727 0.970703 7.60938 0.970703 7.52148C0.970703 7.43359 1.0293 7.31641 1.11719 7.25781L8.5293 1.13477C8.76367 0.958984 9.08594 0.841797 9.4375 0.841797C9.75977 0.841797 10.082 0.958984 10.3164 1.13477L12.9531 3.30273V1.19336C12.9531 0.988281 13.0996 0.841797 13.3047 0.841797H14.9453C15.1211 0.841797 15.2969 0.988281 15.2969 1.19336V5.23633L17.7285 7.25781Z" fill="#666666"/>
</svg>
