<svg width="26" height="26" viewBox="0 0 26 26" fill="none" xmlns="http://www.w3.org/2000/svg">
<g clip-path="url(#clip0_957_26)">
<path d="M12.3395 13.8588C9.33006 14.0007 6.42668 15.1982 4.16758 17.231C1.90848 19.2637 0.424167 22.0213 0.00823272 24.9916C-0.0243896 25.2201 0.040855 25.4564 0.187656 25.6376C0.334456 25.8267 0.546501 25.9449 0.783013 25.9764C1.01953 26.0079 1.26419 25.9449 1.45177 25.8031C1.6475 25.6613 1.76984 25.4564 1.80246 25.2279C2.55277 19.9097 7.02203 15.8679 12.4292 15.6079C18.2115 15.3322 23.3821 19.5631 24.1895 25.2437C24.2548 25.677 24.6381 26.0001 25.0867 26.0001H25.209C25.7065 25.9291 26.049 25.4801 25.9838 25.0073C25.054 18.4364 19.0678 13.5358 12.3395 13.8588Z" fill="black"/>
<path d="M12.9998 12.1097C16.4578 12.1097 19.2633 9.39151 19.2633 6.05879C19.2633 2.72606 16.4496 0 12.9998 0C9.55 0 6.73633 2.71818 6.73633 6.05091C6.73633 9.38364 9.55 12.1018 12.9998 12.1018V12.1097ZM12.9998 1.74909C15.4546 1.74909 17.4528 3.67939 17.4528 6.05091C17.4528 8.42242 15.4546 10.3527 12.9998 10.3527C10.545 10.3527 8.54687 8.42242 8.54687 6.05091C8.54687 3.67939 10.545 1.74909 12.9998 1.74909Z" fill="black"/>
</g>
<defs>
<clipPath id="clip0_957_26">
<rect width="26" height="26" fill="white"/>
</clipPath>
</defs>
</svg>
