<svg xmlns="http://www.w3.org/2000/svg" xmlns:xlink="http://www.w3.org/1999/xlink" viewBox="0 0 279.07 209.35"><defs><style>.cls-1{fill:none;}.cls-2{clip-path:url(#clip-path);}.cls-3{fill:#db3c0f;}.cls-4{fill:#515151;}.cls-5{fill:#fff;}</style><clipPath id="clip-path" transform="translate(-20.46 -55.33)"><rect class="cls-1" width="320" height="320"/></clipPath></defs><g id="레이어_2" data-name="레이어 2"><g id="레이어_2-2" data-name="레이어 2"><g class="cls-2"><rect class="cls-3" x="5" y="55.84" width="269.07" height="148.51"/><path class="cls-4" d="M294.54,264.67H25.46a5,5,0,0,1-5-5V111.17a5,5,0,0,1,5-5H294.54a5,5,0,0,1,5,5v148.5A5,5,0,0,1,294.54,264.67Zm-264.08-10H289.54V116.17H30.46Z" transform="translate(-20.46 -55.33)"/><path class="cls-5" d="M160,89.74V258.49s54.93-32.36,115.71-24.55l.41-163.68S217.86,53.93,160,89.74Z" transform="translate(-20.46 -55.33)"/><path class="cls-4" d="M160,263.49a5,5,0,0,1-5-5V89.74a5,5,0,0,1,2.37-4.25c59-36.55,117.63-20.73,120.1-20a5,5,0,0,1,3.65,4.83L280.71,234a5,5,0,0,1-1.7,3.75,5,5,0,0,1-3.94,1.2c-58.28-7.49-112,23.59-112.53,23.9A5,5,0,0,1,160,263.49Zm5-170.93V250.17c16.69-8.3,58.76-26.08,105.72-21.81l.39-154.11C257.94,71.61,211.33,65.06,165,92.56Z" transform="translate(-20.46 -55.33)"/><path class="cls-5" d="M160,89.74V258.49s-54.93-32.36-115.71-24.55L43.88,70.26S102.14,53.93,160,89.74Z" transform="translate(-20.46 -55.33)"/><path class="cls-4" d="M160,263.49a5,5,0,0,1-2.54-.69c-.53-.31-54.25-31.39-112.53-23.9A5,5,0,0,1,41,237.7a5,5,0,0,1-1.7-3.75L38.88,70.28a5,5,0,0,1,3.66-4.83c2.46-.69,61.05-16.51,120.09,20A5,5,0,0,1,165,89.74V258.49a5,5,0,0,1-5,5ZM63.86,227.71c40.93,0,76.2,15,91.14,22.46V92.56C108.55,65,62.05,71.58,48.89,74.24l.39,154.12C54.2,227.92,59.07,227.71,63.86,227.71Z" transform="translate(-20.46 -55.33)"/><path class="cls-3" d="M262.73,57.38a2.05,2.05,0,0,0-2.06-2.05H229.21a2.05,2.05,0,0,0-2.05,2.05v72.17l17.78-13.26,17.79,13.26Z" transform="translate(-20.46 -55.33)"/><path class="cls-4" d="M139.38,114.51a4.89,4.89,0,0,1-2.46-.66C106.06,96.32,66.06,100.91,65.66,101A5,5,0,0,1,64.45,91c1.77-.22,43.62-5.07,77.41,14.13a5,5,0,0,1-2.48,9.35Z" transform="translate(-20.46 -55.33)"/><path class="cls-4" d="M111.56,132a4.93,4.93,0,0,1-1.76-.32c-22.19-8.33-43.5-4.06-43.72-4a5,5,0,0,1-2-9.78,96.52,96.52,0,0,1,49.29,4.44,5,5,0,0,1-1.76,9.68Z" transform="translate(-20.46 -55.33)"/></g></g></g></svg>