<svg width="14" height="15" viewBox="0 0 14 15" fill="none" xmlns="http://www.w3.org/2000/svg">
<path d="M13.4574 9.50625L12.6733 8.83125V5.62292C12.6733 2.62708 10.0243 0 7.00195 0C3.97959 0 1.32843 2.62708 1.32843 5.62292V8.83125L0.544282 9.50625C-0.0421793 10.0125 -0.171772 10.8458 0.238971 11.4937C0.557461 11.9896 1.13953 12.3 1.75894 12.3H3.62375C3.9093 13.8333 5.31285 15 6.99975 15C8.68665 15 10.0902 13.8313 10.3758 12.3H12.2406C12.86 12.3 13.442 11.9917 13.7627 11.4917C14.1713 10.8458 14.0417 10.0125 13.4552 9.50625H13.4574ZM7.00195 13.75C6.06405 13.75 5.26673 13.1625 4.99216 12.3542H9.01173C8.73498 13.1646 7.93985 13.75 7.00195 13.75ZM12.6381 10.8438C12.5569 10.9708 12.4053 11.0479 12.245 11.0479H1.76114C1.5986 11.0479 1.44704 10.9688 1.36796 10.8458C1.2823 10.7104 1.30866 10.5354 1.43166 10.4292L2.43106 9.56667C2.56944 9.44792 2.64632 9.28125 2.64632 9.10417V5.62083C2.64632 3.29167 4.68026 1.24792 6.99975 1.24792C9.31924 1.24792 11.3532 3.29167 11.3532 5.62083V9.10417C11.3532 9.28125 11.4323 9.44792 11.5684 9.56667L12.5678 10.4292C12.6908 10.5354 12.7172 10.7104 12.6337 10.8438H12.6381Z" fill="#222222"/>
</svg>
