<svg width="24" height="25" viewBox="0 0 24 25" fill="none" xmlns="http://www.w3.org/2000/svg">
<g clip-path="url(#clip0_3371_4924)">
<path fill-rule="evenodd" clip-rule="evenodd" d="M2.68164 1.60645C2.68164 1.29579 2.93348 1.04395 3.24414 1.04395H20.7555C21.0662 1.04395 21.318 1.29579 21.318 1.60645V13.3419C21.318 13.6526 21.0662 13.9044 20.7555 13.9044C20.4448 13.9044 20.193 13.6526 20.193 13.3419V2.16895H3.80664V13.3419C3.80664 13.6526 3.5548 13.9044 3.24414 13.9044C2.93348 13.9044 2.68164 13.6526 2.68164 13.3419V1.60645Z" fill="#222222"/>
<path fill-rule="evenodd" clip-rule="evenodd" d="M-0.230469 13.6406C-0.230469 13.33 0.0213711 13.0781 0.332031 13.0781H6.02621C6.33687 13.0781 6.58871 13.33 6.58871 13.6406C6.58871 15.455 8.12621 16.9642 10.0716 16.9642H13.9268C15.8715 16.9642 17.4097 15.4549 17.4097 13.6406C17.4097 13.33 17.6615 13.0781 17.9722 13.0781H23.6672C23.9779 13.0781 24.2297 13.33 24.2297 13.6406V22.2095C24.2297 23.1745 23.4219 23.9187 22.473 23.9187H1.52621C0.577311 23.9187 -0.230469 23.1745 -0.230469 22.2095V13.6406ZM0.894531 14.2031V22.2095C0.894531 22.5108 1.15545 22.7937 1.52621 22.7937H22.473C22.8438 22.7937 23.1047 22.5108 23.1047 22.2095V14.2031H18.4984C18.2111 16.4102 16.2555 18.0892 13.9268 18.0892H10.0716C7.7421 18.0892 5.78717 16.4101 5.50001 14.2031H0.894531Z" fill="#222222"/>
<path fill-rule="evenodd" clip-rule="evenodd" d="M2.18757 11.5951C2.41765 11.8039 2.43493 12.1596 2.22618 12.3897L0.748618 14.0182C0.539868 14.2483 0.184132 14.2655 -0.0459399 14.0568C-0.276012 13.848 -0.293297 13.4923 -0.0845471 13.2622L1.39302 11.6337C1.60177 11.4037 1.9575 11.3864 2.18757 11.5951Z" fill="#222222"/>
<path fill-rule="evenodd" clip-rule="evenodd" d="M21.8115 11.5951C22.0416 11.3864 22.3973 11.4037 22.606 11.6337L24.0836 13.2622C24.2924 13.4923 24.2751 13.848 24.045 14.0568C23.8149 14.2655 23.4592 14.2483 23.2504 14.0182L21.7729 12.3897C21.5641 12.1596 21.5814 11.8039 21.8115 11.5951Z" fill="#222222"/>
<path fill-rule="evenodd" clip-rule="evenodd" d="M9.82522 5.01247C10.0675 5.20689 10.1063 5.56092 9.91192 5.80322L8.11026 8.04859C8.01047 8.17296 7.86258 8.24913 7.70339 8.25816C7.54419 8.26719 7.38864 8.20823 7.27543 8.09595L6.03554 6.86624C5.81496 6.64748 5.81349 6.29133 6.03226 6.07075C6.25102 5.85018 6.60717 5.84871 6.82774 6.06747L7.62391 6.8571L9.03447 5.09916C9.22889 4.85686 9.58292 4.81804 9.82522 5.01247Z" fill="#1D56BC"/>
<path fill-rule="evenodd" clip-rule="evenodd" d="M9.93555 9.95801C9.93555 9.64735 10.1874 9.39551 10.498 9.39551H16.9227C17.2334 9.39551 17.4852 9.64735 17.4852 9.95801C17.4852 10.2687 17.2334 10.5205 16.9227 10.5205H10.498C10.1874 10.5205 9.93555 10.2687 9.93555 9.95801Z" fill="#222222"/>
<path fill-rule="evenodd" clip-rule="evenodd" d="M11.7969 7.01758C11.7969 6.70692 12.0487 6.45508 12.3594 6.45508H16.9234C17.234 6.45508 17.4859 6.70692 17.4859 7.01758C17.4859 7.32824 17.234 7.58008 16.9234 7.58008H12.3594C12.0487 7.58008 11.7969 7.32824 11.7969 7.01758Z" fill="#222222"/>
</g>
<defs>
<clipPath id="clip0_3371_4924">
<rect width="24" height="22.4" fill="white" transform="translate(0 1.28125)"/>
</clipPath>
</defs>
</svg>
