<svg width="16" height="18" viewBox="0 0 16 18" fill="none" xmlns="http://www.w3.org/2000/svg">
<path d="M7.86609 8.625C5.50867 8.625 3.61609 6.73242 3.61609 4.375C3.61609 2.05078 5.50867 0.125 7.86609 0.125C10.1903 0.125 12.1161 2.05078 12.1161 4.375C12.1161 6.73242 10.1903 8.625 7.86609 8.625ZM10.8212 9.6875C13.2782 9.6875 15.3036 11.7129 15.3036 14.1699V15.5312C15.3036 16.4277 14.5731 17.125 13.7098 17.125H2.02234C1.12585 17.125 0.428589 16.4277 0.428589 15.5312V14.1699C0.428589 11.7129 2.42078 9.6875 4.87781 9.6875H5.44226C6.17273 10.0527 7.00281 10.2188 7.86609 10.2188C8.72937 10.2188 9.52625 10.0527 10.2567 9.6875H10.8212Z" fill="#666666"/>
</svg>
