<svg xmlns="http://www.w3.org/2000/svg" xmlns:xlink="http://www.w3.org/1999/xlink" viewBox="0 0 247.8 303.15"><defs><style>.cls-1{fill:none;}.cls-2{clip-path:url(#clip-path);}.cls-3{fill:#fff;}.cls-4{fill:#515151;}.cls-5{fill:#db3c0f;}</style><clipPath id="clip-path" transform="translate(-36.1 -8.43)"><rect class="cls-1" width="320" height="320"/></clipPath></defs><g id="레이어_2" data-name="레이어 2"><g id="레이어_2-2" data-name="레이어 2"><g class="cls-2"><path class="cls-3" d="M227.71,141.92a66.76,66.76,0,1,0-116.14,44.91,29.89,29.89,0,0,1,7.84,20.1v18.25a7.21,7.21,0,0,0,7.19,7.2h68.7a7.21,7.21,0,0,0,7.19-7.2V206.92a29.71,29.71,0,0,1,7.77-20A66.5,66.5,0,0,0,227.71,141.92Z" transform="translate(-36.1 -8.43)"/><path class="cls-4" d="M195.3,237.38H126.6a12.21,12.21,0,0,1-12.19-12.2V206.92a24.85,24.85,0,0,0-6.54-16.72,71.81,71.81,0,0,1,52.06-120h1a71.75,71.75,0,0,1,53,120.12,24.64,24.64,0,0,0-6.47,16.64v18.26A12.21,12.21,0,0,1,195.3,237.38ZM161,80.16h-.89a61.75,61.75,0,0,0-44.81,103.3,34.8,34.8,0,0,1,9.15,23.45v18.26a2.22,2.22,0,0,0,2.19,2.2h68.7a2.22,2.22,0,0,0,2.19-2.2V206.92a34.63,34.63,0,0,1,9.08-23.38A61.76,61.76,0,0,0,161,80.16Z" transform="translate(-36.1 -8.43)"/><rect class="cls-3" x="91.83" y="223.95" width="66.04" height="74.2" rx="4.21"/><path class="cls-4" d="M189.76,311.57H132.14a9.22,9.22,0,0,1-9.21-9.21V236.59a9.22,9.22,0,0,1,9.21-9.21h57.62a9.22,9.22,0,0,1,9.21,9.21v65.77A9.22,9.22,0,0,1,189.76,311.57Zm-56.83-10h56V237.38h-56Zm56.83-64.19h0Z" transform="translate(-36.1 -8.43)"/><rect class="cls-3" x="80.92" y="216.96" width="87.86" height="56.77" rx="4.25"/><path class="cls-4" d="M200.63,287.16H121.27a9.26,9.26,0,0,1-9.25-9.25V229.64a9.26,9.26,0,0,1,9.25-9.25h79.36a9.26,9.26,0,0,1,9.25,9.25v48.27A9.26,9.26,0,0,1,200.63,287.16Zm-78.61-10h77.86V230.39H122Zm78.61-46.77h0Z" transform="translate(-36.1 -8.43)"/><rect class="cls-3" x="70.36" y="191.58" width="108.99" height="28.71" rx="9.34"/><path class="cls-4" d="M206.11,233.71H115.79a14.35,14.35,0,0,1-14.33-14.33v-10A14.35,14.35,0,0,1,115.79,195h90.32a14.35,14.35,0,0,1,14.33,14.33v10A14.35,14.35,0,0,1,206.11,233.71ZM115.79,205a4.33,4.33,0,0,0-4.33,4.33v10a4.33,4.33,0,0,0,4.33,4.33h90.32a4.33,4.33,0,0,0,4.33-4.33v-10a4.33,4.33,0,0,0-4.33-4.33Z" transform="translate(-36.1 -8.43)"/><path class="cls-5" d="M161,49.43a9,9,0,0,1-9-9v-23a9,9,0,0,1,18,0v23A9,9,0,0,1,161,49.43Z" transform="translate(-36.1 -8.43)"/><path class="cls-5" d="M216.53,62.44a9,9,0,0,1-7.11-14.51L223.5,29.75a9,9,0,1,1,14.23,11L223.65,59A9,9,0,0,1,216.53,62.44Z" transform="translate(-36.1 -8.43)"/><path class="cls-5" d="M253.79,103.72a9,9,0,0,1-3.58-17.26l21.12-9.13a9,9,0,1,1,7.14,16.52L257.35,103A9,9,0,0,1,253.79,103.72Z" transform="translate(-36.1 -8.43)"/><path class="cls-5" d="M103.47,62.44A9,9,0,0,1,96.35,59L82.27,40.77a9,9,0,1,1,14.23-11l14.08,18.18a9,9,0,0,1-7.11,14.51Z" transform="translate(-36.1 -8.43)"/><path class="cls-5" d="M66.21,103.72a9,9,0,0,1-3.56-.74L41.53,93.85a9,9,0,1,1,7.14-16.52l21.12,9.13a9,9,0,0,1-3.58,17.26Z" transform="translate(-36.1 -8.43)"/><path class="cls-5" d="M192.13,122.63h0a17.68,17.68,0,0,0-24.94,0L161,128.87l-6.24-6.24a17.64,17.64,0,0,0-24.94,25l18.71,18.71c10.94,10.94,14,10.91,24.94,0h0l18.71-18.71A17.7,17.7,0,0,0,192.13,122.63Z" transform="translate(-36.1 -8.43)"/></g></g></g></svg>