<svg width="18" height="18" viewBox="0 0 18 18" fill="none" xmlns="http://www.w3.org/2000/svg">
<rect width="18" height="18" fill="#F5F5F5"/>
<g id="&#234;&#180;&#128;&#235;&#166;&#172;&#236;&#158;&#144;&#237;&#142;&#152;&#236;&#157;&#180;&#236;&#167;&#128;-layout02" clip-path="url(#clip0_0_1)">
<rect width="1920" height="1106" transform="translate(-405 -92)" fill="white"/>
<path id="star" d="M9 1.30198L11.0661 6.26946C11.2101 6.61569 11.5357 6.85226 11.9095 6.88223L17.2723 7.31216L13.1864 10.8122C12.9016 11.0561 12.7773 11.4389 12.8643 11.8037L14.1126 17.0368L9.52125 14.2325C9.20124 14.037 8.79876 14.037 8.47875 14.2325L3.88743 17.0368L5.13574 11.8037C5.22275 11.4389 5.09838 11.0561 4.81359 10.8122L0.727691 7.31216L6.0905 6.88223C6.46429 6.85226 6.7899 6.61569 6.93391 6.26946L9 1.30198Z" fill="white" stroke="#959595"/>
</g>
<defs>
<clipPath id="clip0_0_1">
<rect width="1920" height="1106" fill="white" transform="translate(-405 -92)"/>
</clipPath>
</defs>
</svg>
