<svg width="18" height="18" viewBox="0 0 18 18" fill="none" xmlns="http://www.w3.org/2000/svg">
<mask id="mask0_1164_241" style="mask-type:alpha" maskUnits="userSpaceOnUse" x="0" y="0" width="18" height="18">
<rect width="18" height="18" fill="#D9D9D9"/>
</mask>
<g mask="url(#mask0_1164_241)">
<path d="M9.34349 15.3475L9.34338 15.3474L9.33499 15.3565C9.15835 15.5478 8.84165 15.5478 8.66501 15.3565L8.66513 15.3564L8.65651 15.3475L2.60092 9.10351C2.6008 9.10338 2.60068 9.10325 2.60056 9.10313C1.04964 7.49611 1.13388 4.83198 2.87852 3.33603C4.36941 2.06204 6.62993 2.28269 8.03079 3.73984L8.03072 3.73991L8.03765 3.74684L8.66202 4.37132L9.02479 4.73415L9.37814 4.36214L9.96846 3.74065C11.4038 2.27953 13.6335 2.06448 15.1215 3.33609C16.8661 4.83199 16.9503 7.49593 15.3996 9.10296C15.3994 9.10314 15.3993 9.10332 15.3991 9.10351L9.34349 15.3475Z" stroke="#222222"/>
</g>
</svg>
