<svg width="188" height="56" viewBox="0 0 188 56" fill="none" xmlns="http://www.w3.org/2000/svg">
<rect width="188" height="56" rx="4" fill="#807F7E"/>
<path d="M72.376 22.224H66.808V25.728H72.552V27.248H65.08V20.688H72.376V22.224ZM74.744 28.464V20.432H76.488V34.944H74.744V29.888C74.12 30.4 73.048 30.672 71.448 30.672H69.448V34.96H67.704V30.672H64.28V29.152H71.896C73.144 29.152 74.104 28.944 74.744 28.464ZM82.0874 26.048V28.416H91.8954V29.92H86.9354V32.8H92.4714V34.304H79.5914V32.8H85.2074V29.92H80.3434V24.544H89.9754V22.224H80.3434V20.688H91.7194V26.048H82.0874ZM100.647 23.824V22.224H95.3348V20.688H102.375V23.616C102.375 29.152 100.263 32.816 95.2548 34.096V32.448C98.9828 31.376 100.647 28.368 100.647 23.824ZM106.679 20.432V26.352H108.951V27.872H106.679V34.944H104.935V20.432H106.679ZM116.054 23.824V22.224H110.806V20.688H117.766V23.616C117.766 29.136 115.718 32.816 110.71 34.096V32.448C114.39 31.376 116.054 28.352 116.054 23.824ZM122.39 20.432V34.944H120.646V20.432H122.39Z" fill="white"/>
</svg>
