<svg width="14" height="15" viewBox="0 0 14 15" fill="none" xmlns="http://www.w3.org/2000/svg">
<g clip-path="url(#clip0_316_4362)">
<path d="M9.49535 8.49067C10.8128 7.67629 11.6891 6.23531 11.6891 4.59888C11.6891 2.06375 9.58708 0 7.0049 0C4.42272 0 2.32067 2.06375 2.32067 4.59888C2.32067 6.24106 3.20287 7.68587 4.52616 8.49834C2.06109 9.42386 0.226428 11.6773 0.00197488 14.3792C-0.023398 14.6953 0.214717 14.9732 0.53871 14.9981C0.554324 14.9981 0.57189 14.9981 0.587504 14.9981C0.890027 14.9981 1.14571 14.7701 1.17108 14.4692C1.417 11.5125 3.97967 9.19584 7.00685 9.19584C10.034 9.19584 12.5362 11.4205 12.8329 14.3715C12.8641 14.6877 13.151 14.9195 13.473 14.8869C13.7951 14.8563 14.0293 14.5746 13.9981 14.2584C13.7268 11.5719 11.9312 9.38745 9.4973 8.48876L9.49535 8.49067ZM3.49173 4.59888C3.49173 2.69609 5.0668 1.14972 7.0049 1.14972C8.943 1.14972 10.5181 2.69609 10.5181 4.59888C10.5181 6.50166 8.943 8.04803 7.0049 8.04803C5.0668 8.04803 3.49173 6.50166 3.49173 4.59888Z" fill="#222222"/>
</g>
<defs>
<clipPath id="clip0_316_4362">
<rect width="14" height="15" fill="white"/>
</clipPath>
</defs>
</svg>
